<?xml version="1.0" encoding="UTF-8" standalone="no"?>
<!-- Created with Inkscape (http://www.inkscape.org/) -->

<svg
   width="512"
   height="512"
   viewBox="0 0 512 512"
   version="1.1"
   id="svg5"
   xmlns="http://www.w3.org/2000/svg">
  <defs
     id="defs2" />
  <g
     id="layer1">
    <rect
       style="fill:#ffffff;stroke-width:12"
       id="rect846"
       width="512"
       height="512"
       x="0"
       y="0"
       ry="256" />
    <path
       style="fill:none;stroke:#000000;stroke-width:20;stroke-linecap:round;stroke-linejoin:round;stroke-miterlimit:4;stroke-dasharray:none;stroke-opacity:1"
       d="m 424.15548,259.24936 c -13.98167,19.57434 -18.11729,25.58059 -41.35071,52.78814 -9.43028,11.04336 -19.56895,21.48068 -29.91328,31.67288 -9.09037,8.95669 -29.80812,28.07656 -43.11031,37.8315 -0.2365,0.17343 -0.0927,-0.60158 0,-0.8798 0.49941,-1.49825 1.17307,-2.93267 1.7596,-4.39901 4.43958,-11.09895 8.8654,-21.78237 14.07684,-32.55269 12.40116,-25.62907 28.12707,-50.12213 48.38913,-70.38419 11.57085,-11.57084 24.29404,-24.8372 41.35071,-27.27387 26.72538,-3.81791 59.58456,24.05211 56.30735,51.90834 -2.19209,18.63282 -23.76629,36.95686 -39.5911,43.99012 -8.4754,3.76684 -21.04091,6.66048 -29.03348,0 -1.76601,-1.47167 -6.01159,-7.91822 -7.91822,-7.91822"
       id="path8325" />
    <path
       style="fill:none;stroke:#000000;stroke-width:20;stroke-linecap:round;stroke-linejoin:round;stroke-miterlimit:4;stroke-dasharray:none;stroke-opacity:1"
       d="m 308.3247,189.05956 c -13.98167,19.57434 -18.11729,25.58059 -41.35071,52.78814 -9.43028,11.04336 -19.56895,21.48068 -29.91328,31.67288 -9.09037,8.95669 -29.80812,28.07656 -43.11031,37.8315 -0.2365,0.17343 -0.0927,-0.60158 0,-0.8798 0.49941,-1.49825 1.17307,-2.93267 1.7596,-4.39901 4.43958,-11.09895 8.8654,-21.78237 14.07684,-32.55269 12.40116,-25.62907 28.12707,-50.12213 48.38913,-70.38419 11.57085,-11.57084 24.29404,-24.8372 41.35071,-27.27387 26.72538,-3.81791 59.58456,24.05211 56.30735,51.90834 -2.19209,18.63282 -23.76629,36.95686 -39.5911,43.99012 -8.4754,3.76684 -21.04091,6.66048 -29.03348,0 -1.76601,-1.47167 -6.01159,-7.91822 -7.91822,-7.91822"
       id="path8325-0" />
    <path
       style="fill:none;stroke:#000000;stroke-width:20;stroke-linecap:round;stroke-linejoin:round;stroke-miterlimit:4;stroke-dasharray:none;stroke-opacity:1"
       d="m 42.230514,237.54664 c 15.245778,-38.52219 46.71726,-67.53288 73.903396,-97.65806 3.34939,-3.71149 25.86625,-33.16858 29.91328,-35.1921 0.26231,-0.13115 0,0.58654 0,0.8798 0,2.93268 -0.13316,5.86838 0,8.79803 0.16036,3.52776 0.75376,7.02847 0.8798,10.55763 0.54169,15.16722 -1.23015,29.83785 -2.6394,44.86992 -0.0504,0.53717 -2.32379,18.22729 -0.87981,21.11525 0.65577,1.31153 1.67906,-2.41111 2.63941,-3.51921 2.98791,-3.44758 6.26802,-6.64688 9.67783,-9.67782 14.84321,-13.19397 31.38796,-22.58649 48.38913,-32.55269 4.42571,-2.59438 8.22012,-6.67399 13.19703,-7.91822 0.28451,-0.0711 0.0195,0.58718 0,0.8798 -0.2738,4.10709 -0.2031,8.25703 -0.8798,12.31723 -0.79515,4.77089 -1.90946,9.51589 -3.51921,14.07684 -9.67602,27.41539 -27.91244,51.23785 -43.11031,75.663 -15.23172,24.47955 -7.54393,10.65481 -17.59605,31.67289 -1.1937,2.49592 -4.39901,9.8051 -4.39901,7.03842"
       id="path8866" />
    <path
       style="fill:none;stroke:#000000;stroke-width:20;stroke-linecap:round;stroke-linejoin:miter;stroke-miterlimit:4;stroke-dasharray:none;stroke-opacity:1"
       d="m 279.29123,263.84276 c -0.20461,0.83914 0.4399,-1.70462 -1.21869,2.46242 -0.42439,1.06624 -0.77346,2.4271 -1.26472,3.46423 -0.82862,1.74929 -1.28304,3.18928 -2.08953,4.94888 -0.95312,1.90624 -1.9456,3.7933 -2.85936,5.71872 -1.91031,4.0253 -5.04442,11.08414 -6.59852,15.17659 -6.9231,18.23085 -11.21748,37.64036 -11.21748,57.18715"
       id="path1926" />
  </g>
</svg>
